<?xml version="1.0" standalone="no"?>
<!DOCTYPE svg PUBLIC "-//W3C//DTD SVG 20010904//EN"
 "http://www.w3.org/TR/2001/REC-SVG-20010904/DTD/svg10.dtd">
<svg version="1.0" xmlns="http://www.w3.org/2000/svg"
 width="512.000000pt" height="512.000000pt" viewBox="0 0 512.000000 512.000000"
 preserveAspectRatio="xMidYMid meet">
<metadata>
Created by potrace 1.11, written by Peter Selinger 2001-2013
</metadata>
<g transform="translate(0.000000,512.000000) scale(0.100000,-0.100000)"
fill="#000000" stroke="none">
<path d="M4000 4634 c-30 -8 -75 -25 -100 -36 -39 -19 -60 -22 -149 -20 -58 1
-119 -2 -136 -8 -86 -28 -135 -140 -130 -296 1 -64 6 -88 23 -111 15 -21 19
-39 16 -68 -8 -67 -44 -175 -85 -256 l-38 -77 52 -47 c66 -59 159 -125 217
-155 25 -12 54 -27 64 -32 11 -6 58 -22 105 -36 73 -22 107 -26 221 -26 121
-1 227 8 239 19 2 3 5 34 6 69 2 35 5 68 9 74 3 5 22 8 43 6 29 -2 48 4 78 25
56 40 77 44 188 42 53 -1 116 3 139 9 39 11 90 51 99 78 4 11 10 10 34 -2 17
-9 42 -16 57 -16 22 0 25 3 20 22 -3 12 -31 48 -61 79 -68 70 -117 85 -271 89
l-55 1 35 18 c19 10 63 21 98 25 85 9 105 18 185 84 86 70 100 91 94 137 -3
21 1 48 9 63 17 34 18 56 1 70 -22 18 -161 35 -382 47 -49 3 -99 10 -110 16
-11 6 -43 39 -70 73 -57 69 -119 106 -178 106 -21 0 -58 11 -85 25 -54 29
-100 31 -182 9z"/>
<path d="M3282 3598 c-22 -29 -51 -66 -64 -82 -61 -76 -107 -136 -143 -186
-65 -90 -119 -152 -347 -395 -36 -38 -80 -86 -98 -105 -18 -19 -116 -122 -219
-229 -102 -106 -201 -210 -220 -230 -19 -20 -91 -97 -162 -171 -192 -203 -234
-249 -301 -333 -105 -130 -246 -363 -328 -542 -72 -155 -80 -174 -80 -187 0
-8 -4 -18 -9 -24 -5 -5 -23 -56 -40 -114 -34 -112 -50 -148 -89 -195 -26 -32
-87 -77 -112 -84 -8 -2 -37 -10 -65 -18 -100 -28 -352 -18 -511 20 -65 16
-142 74 -170 130 -32 61 -16 196 29 247 17 20 16 21 -6 29 -49 19 -85 19 -116
0 -60 -37 -117 -158 -128 -275 -19 -207 162 -332 537 -371 87 -10 405 -10 455
-1 106 19 198 45 297 83 104 40 131 57 181 109 33 35 39 38 52 25 9 -8 20 -41
25 -73 12 -73 35 -114 80 -137 42 -23 78 -23 195 0 l90 18 -4 38 c-1 22 -7 49
-11 60 -13 34 -4 274 14 355 22 99 69 234 116 335 90 188 204 323 329 389 115
60 275 113 361 119 128 9 156 21 188 82 13 24 16 66 16 220 l1 190 31 71 c18
39 37 98 44 130 7 35 31 91 58 137 54 91 61 89 87 -23 10 -41 28 -93 40 -115
21 -37 27 -41 67 -42 83 -3 206 -63 229 -113 6 -14 18 -39 26 -55 9 -18 30
-37 53 -46 51 -22 60 -59 30 -126 -36 -81 -84 -120 -155 -125 -33 -2 -40 -7
-52 -36 -35 -84 -27 -148 34 -287 53 -118 52 -184 -4 -331 -23 -61 -45 -126
-48 -144 -3 -18 -8 -36 -10 -40 -11 -18 -19 -118 -18 -225 1 -114 25 -301 41
-317 5 -5 33 -17 63 -27 76 -27 291 -22 454 10 28 5 56 13 64 18 21 13 5 59
-33 97 -26 26 -48 36 -116 50 -47 10 -92 26 -101 35 -16 16 -45 101 -55 159
-3 14 -7 32 -10 42 -2 9 -5 45 -5 80 0 57 2 95 16 253 3 28 7 88 11 135 3 46
13 103 21 125 9 22 90 153 181 290 348 527 366 560 395 730 16 95 12 351 -8
515 -2 14 -6 59 -10 100 -11 142 -9 139 -95 119 -117 -27 -338 -13 -472 31
-133 43 -325 155 -402 234 -50 50 -50 50 -94 -6z"/>
</g>
</svg>
